<?xml version="1.0" encoding="utf-8"?>
<!-- Generator: Adobe Illustrator 23.0.4, SVG Export Plug-In . SVG Version: 6.00 Build 0)  -->
<svg version="1.1" baseProfile="tiny" id="Layer_1" xmlns="http://www.w3.org/2000/svg" xmlns:xlink="http://www.w3.org/1999/xlink"
	 x="0px" y="0px" viewBox="0 0 174.3 63.7" xml:space="preserve">
<g>
	<rect x="5.2" y="4.7" fill="none" width="164" height="54"/>
	<path fill="#CE1F26" d="M2.2,1.7v60h170v-60H2.2z M169.2,58.7H5.2v-54h164V58.7z"/>
</g>
<g>
	<text transform="matrix(1 0 0 1 31.2217 35.667)" fill="#000001" font-family="'ITCAvantGardeStd-MdCn'" font-size="16px">V</text>
	<text transform="matrix(1 0 0 1 41.8134 35.667)" fill="#000001" font-family="'ITCAvantGardeStd-MdCn'" font-size="16px">I</text>
	<text transform="matrix(1 0 0 1 47.7812 35.667)" fill="#000001" font-family="'ITCAvantGardeStd-MdCn'" font-size="16px">S</text>
	<text transform="matrix(1 0 0 1 58.2607 35.667)" fill="#000001" font-family="'ITCAvantGardeStd-MdCn'" font-size="16px">T</text>
	<text transform="matrix(1 0 0 1 66.1172 35.667)" fill="#000001" font-family="'ITCAvantGardeStd-MdCn'" font-size="16px">A</text>
</g>
<path fill="#000001" d="M139.3,39.8c-2.4,1.1-8.2,2.5-17.7,2.8c-0.8,0-1.4,0.6-1.4,1.4c0,0.8,0.6,1.4,1.4,1.3
	c5.7-0.2,21.6-1.2,21.6-6.3c0-6.3-24-6.4-25-6.4c-1,0-25,0.1-25,6.4c0,4.9,14.6,6,20.9,6.3l-2.1,2c-0.5,0.5-0.5,1.4,0,1.9v0
	c0.5,0.5,1.4,0.5,2,0l3.9-3.9c0.5-0.5,0.6-1.4,0.1-2c-1-1.2-2.6-3.1-3.6-4.2c-0.5-0.6-1.4-0.6-1.9-0.2c-0.6,0.5-0.7,1.4-0.2,1.9
	l1.4,1.6c-8.8-0.4-14.3-1.7-16.5-2.7c-0.7-0.3-0.7-1.2,0-1.6c2.7-1.3,10-2.8,21.1-2.8c11.1,0,18.4,1.5,21.1,2.8
	C140,38.6,140,39.5,139.3,39.8z"/>
<path fill="#000001" d="M103.2,28.5c-0.6,0.4-1.4,0.6-2.4,0.6c-1.3,0-2.7-0.4-4.1-1.2h-0.3v2.7c1.5,0.6,3.1,0.9,4.9,0.9
	c1.8,0,3.3-0.4,4.4-1.2c1.1-0.8,1.6-1.9,1.6-3.3c0-0.9-0.3-1.6-0.8-2.2c-0.6-0.6-1.3-0.9-2.3-1.1v-0.1c0.8-0.2,1.5-0.6,2-1.2
	c0.5-0.6,0.8-1.3,0.8-2.1c0-1.1-0.5-1.9-1.4-2.5c-0.9-0.6-2.3-1-4-1c-1.5,0-3.1,0.3-4.7,0.9v2.6h0.3c1.5-0.8,2.9-1.2,4-1.2
	c0.9,0,1.5,0.1,2,0.4c0.5,0.3,0.7,0.7,0.7,1.2c0,1.3-1.1,1.9-3.2,1.9h-0.8v2.1h0.8c1.4,0,2.3,0.2,2.8,0.5c0.4,0.3,0.7,0.8,0.7,1.4
	C104,27.5,103.7,28.1,103.2,28.5z"/>
<g>
	<path fill="none" d="M112.8,24.9c0,0.2,0,0.4,0,0.5c0,2.6,0.9,3.9,2.6,3.9c0.7,0,1.3-0.2,1.7-0.7c0.4-0.5,0.6-1.2,0.6-2
		c0-1.7-0.9-2.6-2.8-2.6c-0.7,0-1.5,0.2-2.2,0.5L112.8,24.9z"/>
	<path fill="#000001" d="M117.2,19c0.9,0,1.6,0.1,2.2,0.4h0.3V17c-0.7-0.2-1.5-0.2-2.4-0.2c-2.5,0-4.4,0.7-5.7,2.1
		c-1.3,1.4-2,3.4-2,6c0,2.1,0.5,3.8,1.5,4.9c1,1.1,2.4,1.7,4.3,1.7c1.6,0,3-0.5,4-1.4c1-0.9,1.6-2.1,1.6-3.6c0-1.4-0.4-2.5-1.3-3.3
		c-0.9-0.8-2-1.2-3.4-1.2c-1,0-2.2,0.4-3.4,1.1C113.1,20.3,114.6,19,117.2,19z M115,24c1.8,0,2.8,0.9,2.8,2.6c0,0.9-0.2,1.6-0.6,2
		c-0.4,0.5-1,0.7-1.7,0.7c-1.8,0-2.6-1.3-2.6-3.9c0-0.1,0-0.3,0-0.5l0-0.4C113.6,24.1,114.3,24,115,24z"/>
</g>
<g>
	<path fill="none" d="M130.4,28c0.4-0.8,0.6-2.1,0.6-3.9c0-1.8-0.2-3.1-0.6-3.9c-0.4-0.8-1-1.2-1.9-1.2c-0.9,0-1.5,0.4-1.9,1.2
		c-0.4,0.8-0.6,2.1-0.6,3.9c0,1.8,0.2,3.1,0.6,3.9c0.4,0.8,1,1.2,1.9,1.2C129.4,29.2,130,28.8,130.4,28z"/>
	<path fill="#000001" d="M132.8,29.7c0.9-1.2,1.4-3,1.4-5.6c0-2.5-0.5-4.4-1.4-5.6c-0.9-1.2-2.4-1.8-4.3-1.8c-2,0-3.4,0.6-4.3,1.8
		c-0.9,1.2-1.4,3-1.4,5.6c0,2.6,0.5,4.4,1.4,5.6c0.9,1.2,2.4,1.7,4.3,1.7C130.5,31.4,131.9,30.8,132.8,29.7z M126.6,28
		c-0.4-0.8-0.6-2.1-0.6-3.9c0-1.8,0.2-3.1,0.6-3.9c0.4-0.8,1-1.2,1.9-1.2c0.9,0,1.5,0.4,1.9,1.2c0.4,0.8,0.6,2.1,0.6,3.9
		c0,1.8-0.2,3.1-0.6,3.9c-0.4,0.8-1,1.3-1.9,1.3C127.6,29.2,127,28.8,126.6,28z"/>
</g>
<circle fill="#000001" cx="137.2" cy="16.7" r="3"/>
<g>
	<rect x="5.2" y="4.7" fill="none" width="164" height="54"/>
	<path fill="#CE1F26" d="M2.2,1.7v60h170v-60H2.2z M169.2,58.7H5.2v-54h164V58.7z"/>
</g>
<g>
	<text transform="matrix(1 0 0 1 31.2217 35.667)" fill="#000001" font-family="'ITCAvantGardeStd-MdCn'" font-size="16px">V</text>
	<text transform="matrix(1 0 0 1 41.8134 35.667)" fill="#000001" font-family="'ITCAvantGardeStd-MdCn'" font-size="16px">I</text>
	<text transform="matrix(1 0 0 1 47.7812 35.667)" fill="#000001" font-family="'ITCAvantGardeStd-MdCn'" font-size="16px">S</text>
	<text transform="matrix(1 0 0 1 58.2607 35.667)" fill="#000001" font-family="'ITCAvantGardeStd-MdCn'" font-size="16px">T</text>
	<text transform="matrix(1 0 0 1 66.1172 35.667)" fill="#000001" font-family="'ITCAvantGardeStd-MdCn'" font-size="16px">A</text>
</g>
<path fill="#000001" d="M139.3,39.8c-2.4,1.1-8.2,2.5-17.7,2.8c-0.8,0-1.4,0.6-1.4,1.4c0,0.8,0.6,1.4,1.4,1.3
	c5.7-0.2,21.6-1.2,21.6-6.3c0-6.3-24-6.4-25-6.4c-1,0-25,0.1-25,6.4c0,4.9,14.6,6,20.9,6.3l-2.1,2c-0.5,0.5-0.5,1.4,0,1.9v0
	c0.5,0.5,1.4,0.5,2,0l3.9-3.9c0.5-0.5,0.6-1.4,0.1-2c-1-1.2-2.6-3.1-3.6-4.2c-0.5-0.6-1.4-0.6-1.9-0.2c-0.6,0.5-0.7,1.4-0.2,1.9
	l1.4,1.6c-8.8-0.4-14.3-1.7-16.5-2.7c-0.7-0.3-0.7-1.2,0-1.6c2.7-1.3,10-2.8,21.1-2.8c11.1,0,18.4,1.5,21.1,2.8
	C140,38.6,140,39.5,139.3,39.8z"/>
<path fill="#000001" d="M103.2,28.5c-0.6,0.4-1.4,0.6-2.4,0.6c-1.3,0-2.7-0.4-4.1-1.2h-0.3v2.7c1.5,0.6,3.1,0.9,4.9,0.9
	c1.8,0,3.3-0.4,4.4-1.2c1.1-0.8,1.6-1.9,1.6-3.3c0-0.9-0.3-1.6-0.8-2.2c-0.6-0.6-1.3-0.9-2.3-1.1v-0.1c0.8-0.2,1.5-0.6,2-1.2
	c0.5-0.6,0.8-1.3,0.8-2.1c0-1.1-0.5-1.9-1.4-2.5c-0.9-0.6-2.3-1-4-1c-1.5,0-3.1,0.3-4.7,0.9v2.6h0.3c1.5-0.8,2.9-1.2,4-1.2
	c0.9,0,1.5,0.1,2,0.4c0.5,0.3,0.7,0.7,0.7,1.2c0,1.3-1.1,1.9-3.2,1.9h-0.8v2.1h0.8c1.4,0,2.3,0.2,2.8,0.5c0.4,0.3,0.7,0.8,0.7,1.4
	C104,27.5,103.7,28.1,103.2,28.5z"/>
<g>
	<path fill="none" d="M112.8,24.9c0,0.2,0,0.4,0,0.5c0,2.6,0.9,3.9,2.6,3.9c0.7,0,1.3-0.2,1.7-0.7c0.4-0.5,0.6-1.2,0.6-2
		c0-1.7-0.9-2.6-2.8-2.6c-0.7,0-1.5,0.2-2.2,0.5L112.8,24.9z"/>
	<path fill="#000001" d="M117.2,19c0.9,0,1.6,0.1,2.2,0.4h0.3V17c-0.7-0.2-1.5-0.2-2.4-0.2c-2.5,0-4.4,0.7-5.7,2.1
		c-1.3,1.4-2,3.4-2,6c0,2.1,0.5,3.8,1.5,4.9c1,1.1,2.4,1.7,4.3,1.7c1.6,0,3-0.5,4-1.4c1-0.9,1.6-2.1,1.6-3.6c0-1.4-0.4-2.5-1.3-3.3
		c-0.9-0.8-2-1.2-3.4-1.2c-1,0-2.2,0.4-3.4,1.1C113.1,20.3,114.6,19,117.2,19z M115,24c1.8,0,2.8,0.9,2.8,2.6c0,0.9-0.2,1.6-0.6,2
		c-0.4,0.5-1,0.7-1.7,0.7c-1.8,0-2.6-1.3-2.6-3.9c0-0.1,0-0.3,0-0.5l0-0.4C113.6,24.1,114.3,24,115,24z"/>
</g>
<g>
	<path fill="none" d="M130.4,28c0.4-0.8,0.6-2.1,0.6-3.9c0-1.8-0.2-3.1-0.6-3.9c-0.4-0.8-1-1.2-1.9-1.2c-0.9,0-1.5,0.4-1.9,1.2
		c-0.4,0.8-0.6,2.1-0.6,3.9c0,1.8,0.2,3.1,0.6,3.9c0.4,0.8,1,1.2,1.9,1.2C129.4,29.2,130,28.8,130.4,28z"/>
	<path fill="#000001" d="M132.8,29.7c0.9-1.2,1.4-3,1.4-5.6c0-2.5-0.5-4.4-1.4-5.6c-0.9-1.2-2.4-1.8-4.3-1.8c-2,0-3.4,0.6-4.3,1.8
		c-0.9,1.2-1.4,3-1.4,5.6c0,2.6,0.5,4.4,1.4,5.6c0.9,1.2,2.4,1.7,4.3,1.7C130.5,31.4,131.9,30.8,132.8,29.7z M126.6,28
		c-0.4-0.8-0.6-2.1-0.6-3.9c0-1.8,0.2-3.1,0.6-3.9c0.4-0.8,1-1.2,1.9-1.2c0.9,0,1.5,0.4,1.9,1.2c0.4,0.8,0.6,2.1,0.6,3.9
		c0,1.8-0.2,3.1-0.6,3.9c-0.4,0.8-1,1.3-1.9,1.3C127.6,29.2,127,28.8,126.6,28z"/>
</g>
<circle fill="#000001" cx="137.2" cy="16.7" r="3"/>
</svg>
