<?xml version="1.0" encoding="utf-8"?>
<!-- Generator: Adobe Illustrator 23.0.4, SVG Export Plug-In . SVG Version: 6.00 Build 0)  -->
<svg version="1.1" baseProfile="tiny" id="Layer_1" xmlns="http://www.w3.org/2000/svg" xmlns:xlink="http://www.w3.org/1999/xlink"
	 x="0px" y="0px" viewBox="0 0 214.2 53.9" xml:space="preserve">
<rect x="2.8" y="2.3" fill="#000001" width="160" height="50"/>
<rect x="162.8" y="2.3" fill="#CE1F26" width="50" height="50"/>
<g>
	<path fill="none" d="M188.8,30.7c-0.3,0.3-0.8,0.3-1.1,0l-2.9-2.4l-6.1,6h19l-6.1-6L188.8,30.7z"/>
	<polygon fill="none" points="177.8,22.3 177.8,33.3 183.8,27.3 	"/>
	<path fill="none" d="M197.8,21.3h-19l9.5,8C191.5,26.7,194.6,24,197.8,21.3z"/>
	<polygon fill="none" points="198.8,33.3 198.8,22.3 192.8,27.3 	"/>
	<path fill="#FFFFFF" d="M199.9,36.3c0.5,0,0.9-0.4,0.9-0.9V20.2c0-0.5-0.3-0.9-0.9-0.9h-23.2c-0.5,0-0.9,0.3-0.9,0.9v15.2
		c0,0.5,0.3,0.9,0.9,0.9H199.9z M178.8,34.3l6.1-6l2.9,2.4c0.3,0.3,0.8,0.3,1.1,0l2.9-2.4l6.1,6H178.8z M198.8,33.3l-6-6l6-5V33.3z
		 M197.8,21.3c-3.2,2.7-6.3,5.3-9.5,8l-9.5-8H197.8z M177.8,22.3l6,5l-6,6V22.3z"/>
</g>
<g>
	<text transform="matrix(1 0 0 1 16.794 33.3214)" fill="#FFFFFF" font-family="'ITCAvantGardeStd-MdCn'" font-size="14px">G</text>
	<text transform="matrix(1 0 0 1 27.1119 33.3214)" fill="#FFFFFF" font-family="'ITCAvantGardeStd-MdCn'" font-size="14px">A</text>
	<text transform="matrix(1 0 0 1 36.296 33.3214)" fill="#FFFFFF" font-family="'ITCAvantGardeStd-MdCn'" font-size="14px">L</text>
	<text transform="matrix(1 0 0 1 44.0519 33.3214)" fill="#FFFFFF" font-family="'ITCAvantGardeStd-MdCn'" font-size="14px">E</text>
	<text transform="matrix(1 0 0 1 52.8019 33.3214)" fill="#FFFFFF" font-family="'ITCAvantGardeStd-MdCn'" font-size="14px">R</text>
	<text transform="matrix(1 0 0 1 62.0558 33.3214)" fill="#FFFFFF" font-family="'ITCAvantGardeStd-MdCn'" font-size="14px">I</text>
	<text transform="matrix(1 0 0 1 67.2774 33.3214)" fill="#FFFFFF" font-family="'ITCAvantGardeStd-MdCn'" font-size="14px">A</text>
	<text transform="matrix(1 0 0 1 76.461 33.3214)" fill="#FFFFFF" font-family="'ITCAvantGardeStd-MdCn'" font-size="14px"> </text>
	<text transform="matrix(1 0 0 1 81.9913 33.3214)" fill="#FFFFFF" font-family="'ITCAvantGardeStd-MdCn'" font-size="14px">D</text>
	<text transform="matrix(1 0 0 1 92.253 33.3214)" fill="#FFFFFF" font-family="'ITCAvantGardeStd-MdCn'" font-size="14px">E</text>
	<text transform="matrix(1 0 0 1 101.003 33.3214)" fill="#FFFFFF" font-family="'ITCAvantGardeStd-MdCn'" font-size="14px"> </text>
	<text transform="matrix(1 0 0 1 106.5323 33.3214)" fill="#FFFFFF" font-family="'ITCAvantGardeStd-MdCn'" font-size="14px">F</text>
	<text transform="matrix(1 0 0 1 114.5265 33.3214)" fill="#FFFFFF" font-family="'ITCAvantGardeStd-MdCn'" font-size="14px">O</text>
	<text transform="matrix(1 0 0 1 124.5362 33.3214)" fill="#FFFFFF" font-family="'ITCAvantGardeStd-MdCn'" font-size="14px">T</text>
	<text transform="matrix(1 0 0 1 131.8858 33.3214)" fill="#FFFFFF" font-family="'ITCAvantGardeStd-MdCn'" font-size="14px">O</text>
	<text transform="matrix(1 0 0 1 142.4425 33.3214)" fill="#FFFFFF" font-family="'ITCAvantGardeStd-MdCn'" font-size="14px">S</text>
</g>
</svg>
