<?xml version="1.0" encoding="utf-8"?>
<!-- Generator: Adobe Illustrator 23.0.4, SVG Export Plug-In . SVG Version: 6.00 Build 0)  -->
<svg version="1.1" baseProfile="tiny" id="Layer_1" xmlns="http://www.w3.org/2000/svg" xmlns:xlink="http://www.w3.org/1999/xlink"
	 x="0px" y="0px" viewBox="0 0 214.2 53.9" xml:space="preserve">
<rect x="2" y="1.8" fill="#000001" width="210" height="50"/>
<g>
	<text transform="matrix(1 0 0 1 18.9743 32.8297)" fill="#FFFFFF" font-family="'ITCAvantGardeStd-MdCn'" font-size="14px">P</text>
	<text transform="matrix(1 0 0 1 28.1022 32.8297)" fill="#FFFFFF" font-family="'ITCAvantGardeStd-MdCn'" font-size="14px">L</text>
	<text transform="matrix(1 0 0 1 35.8581 32.8297)" fill="#FFFFFF" font-family="'ITCAvantGardeStd-MdCn'" font-size="14px">A</text>
	<text transform="matrix(1 0 0 1 44.4675 32.8297)" fill="#FFFFFF" font-family="'ITCAvantGardeStd-MdCn'" font-size="14px">Y</text>
</g>
<rect x="162" y="1.8" fill="#CE1F26" width="50" height="50"/>
<g>
	<path fill="none" d="M198.5,27.3c0-6.1-5-11.1-11.1-11.1c-6.1,0-11.1,5-11.1,11.1c0,6.1,5,11.1,11.1,11.1
		C193.6,38.4,198.5,33.4,198.5,27.3z M185,22l8.6,5.4l-8.6,5.4V22z"/>
	<polygon fill="#FFFFFF" points="185,22 185,32.7 193.5,27.3 	"/>
	<path fill="#FFFFFF" d="M200,27.3c0-6.9-5.6-12.5-12.5-12.5S175,20.4,175,27.3c0,6.9,5.6,12.5,12.5,12.5S200,34.2,200,27.3z
		 M176.4,27.3c0-6.1,5-11.1,11.1-11.1c6.1,0,11.1,5,11.1,11.1c0,6.1-5,11.1-11.1,11.1C181.4,38.4,176.4,33.4,176.4,27.3z"/>
</g>
</svg>
