<?xml version="1.0" encoding="utf-8"?>
<!-- Generator: Adobe Illustrator 23.0.4, SVG Export Plug-In . SVG Version: 6.00 Build 0)  -->
<svg version="1.1" id="acura-slogan" xmlns="http://www.w3.org/2000/svg" xmlns:xlink="http://www.w3.org/1999/xlink" x="0px"
	 y="0px" viewBox="0 0 5952.8 2551.2" style="enable-background:new 0 0 5952.8 2551.2;" xml:space="preserve">
<style type="text/css">
	.st0{fill:#FFFFFF;}
</style>
<path class="st0" d="M873.6,967.3c-7-143.6-56.7-249.4-123.3-306.9C678.2,598.1,542.9,575,437.9,575
	c-105.1,0.7-239.6,23.1-312.5,85.5C58.8,717.9,9.8,823.7,1.4,967.3c-7,134.5,23.1,280.9,99.5,365.7c73.6,82,222.1,107.9,337,107.9
	s263.4-25.9,337-107.9C851.2,1249.7,880.6,1101.1,873.6,967.3L873.6,967.3z M413.3,611.4h49v313.9h-49.7L413.3,611.4z M60.2,1098.3
	c-4.2-53.2-20.3-250.1,57.4-362.9c32.2-46.2,79.2-81.3,132.4-99.5c49-15.4,100.2-23.8,151.3-25.2c-32.9,79.2-99.5,248-111.4,286.5
	c-20.3,49.7-34.3,102.3-42.7,155.5c-8.4,68-23.8,238.2-27.3,312.5C127.5,1320.4,71.5,1237.1,60.2,1098.3L60.2,1098.3z M645.2,1369.5
	c-63.8,27.3-142.9,32.9-208.1,34.3s-144.3-7-208.1-34.3c21-56.7,123.3-301.2,179.3-396.5h57.4
	C522.6,1068.2,624.2,1312.7,645.2,1369.5L645.2,1369.5z M814.8,1098.3c-11.9,138-67.3,222.1-160.4,266.2
	c-4.2-74.3-18.9-244.5-27.3-312.5c-8.4-53.2-22.4-105.8-42.7-155.5c-12.6-37.8-79.2-207.4-111.4-286.5
	c51.1,1.4,102.3,9.8,151.3,25.2c53.2,18.2,99.5,53.2,132.4,99.5C835.1,848.2,819,1045.1,814.8,1098.3z M1407.4,643H1605l439.3,727.9
	h-207.4l-331.4-549.9l-174.4,289.3h283.7l83.4,137.3h-449.8l-73.6,123.3H969.6L1407.4,643L1407.4,643z M4122.2,1371.6h-177.9V643.7
	h667.6c231.2,0,291.4,308.3,128.9,414.7c70.8,26.6,82.7,115.6,85.5,144.3l5.6,168.8H4656l-5.6-148.5
	c-4.9-63.8-44.8-107.2-109.3-107.2H4202l-35-152h392.3c60.9,0,96.7-28.7,96.7-82.7c0-51.1-35-82.7-96.7-82.7h-437.2V1371.6
	 M3397.8,1371.6h-162.5c-190.6,0-267.6-105.8-267.6-277.4V643h180v482c0.7,91.8,63.8,103.7,121.9,105.1h257.1
	c58.1-1.4,121.9-13.3,121.9-105.1V643h180v451.2c0,171.6-77.1,277.4-267.6,277.4H3397.8 M2213.8,1008.7v90.4
	c1.4,62.4,14,124,100.9,124h547.8v148.5h-550.6c-171.6,0-277.4-76.4-278.8-267.6V912c2.1-191.3,107.2-267.6,278.8-267.6h549.9v148.5
	H2314c-86.9-0.7-98.8,60.9-100.9,123.3v91.1 M5315.9,643h197.6l438.6,727.9h-207.4l-331.4-549.9l-174.4,289.3h283.7l82.7,137.3
	h-449.1l-74.3,123.3h-205.3L5315.9,643L5315.9,643z M0,1736.6h94.6c37.8,2.1,66.6,33.6,65.2,71.5c-1.4,35-30.1,63.1-65.2,65.2H24.5
	v99.5H0V1736.6z M24.5,1759.7v89.7h70.1c24.5-2.8,42-25.2,39.2-50.4c-2.8-20.3-18.9-37.1-39.2-39.2H24.5z M306.1,1842.4
	c20.3,0,37.1-16.1,37.1-36.4v-3.5c0.7-23.1-17.5-42-40.6-42.7h-71.5v211.6h-24.5v-234.7h96c35.7,0,65.2,28.7,65.2,64.5v1.4
	c2.1,32.9-23.8,61.7-56.7,63.1h-18.9l70.8,105.8h-29.4l-86.2-128.9H306.1L306.1,1842.4z M545.7,1735.9v23.8h-110v82.7h110v23.8h-110
	v82.7h110v23.8H410.5v-235.4h135.2L545.7,1735.9z M592.7,1853.6c0.7-68,55.3-122.6,123.3-122.6c31.5-1.4,62.4,10.5,85.5,32.2
	l-14.7,18.9c-39.2-37.8-102.3-36.4-140.1,2.8c-37.8,39.2-36.4,102.3,2.8,140.1c38.5,37.1,98.8,37.1,137.3,0l14.7,18.9
	c-23.1,21.7-53.9,32.9-85.5,32.2C648,1976.2,593.4,1921.5,592.7,1853.6 M842.1,1735.9h24.5v235.4h-24.5V1735.9z M1024.2,1790.5
	c-1.4-21-19.6-37.8-40.6-36.4c-19.6,0.7-35,16.1-36.4,35.7c0,25.9,23.1,36.4,47.6,47.6c39.9,18.2,63.8,32.9,63.8,74.3
	c0,41.3-33.6,63.8-73.6,63.8c-39.9,0-72.2-25.2-72.2-65.2h24.5c1.4,24.5,21.7,43.4,46.2,42h1.4c28,0,47.6-14.7,47.6-41.3
	c0-26.6-18.2-37.1-49.7-51.8c-31.5-14.7-62.4-28.7-62.4-70.8c-0.7-31.5,24.5-58.1,56-58.8h6.3c39.9,0,64.5,22.4,64.5,59.5
	L1024.2,1790.5L1024.2,1790.5z M1098.5,1735.9h24.5v235.4h-24.5V1735.9z M1289.8,1731c68,0.7,121.9,55.3,121.9,123.3
	c-0.7,68-55.3,121.9-123.3,121.9c-67.3-0.7-121.9-55.3-121.9-122.6C1167.2,1786.3,1221.8,1731.7,1289.8,1731 M1289.8,1952.3
	c54.6,0.7,100.2-42.7,100.9-97.4c0.7-54.6-42.7-100.2-97.4-100.9s-100.2,42.7-100.9,97.4v2.1
	C1192.4,1907.5,1235.8,1951.6,1289.8,1952.3 M1481.7,1775.1v195.5h-25.2v-235.4h25.2l149.2,196.2v-196.2h25.2v235.4h-25.2
	L1481.7,1775.1L1481.7,1775.1z M1868.4,1853.6c0.7-68,55.3-122.6,123.3-122.6c31.5-1.4,62.4,10.5,85.5,32.2l-14.7,18.9
	c-39.2-37.8-102.3-36.4-140.1,2.8c-37.8,39.2-36.4,102.3,2.8,140.1c38.5,37.1,98.8,37.1,137.3,0l14.7,18.9
	c-23.1,21.7-53.9,32.9-85.5,32.2C1923.8,1976.2,1869.1,1921.5,1868.4,1853.6 M2215.9,1842.4c20.3,0,37.1-16.1,37.1-36.4v-3.5
	c0.7-23.1-17.5-42-40.6-42.7h-70.8v211.6h-24.5v-234.7h96c35.7,0,65.2,28.7,65.2,64.5v1.4c2.1,32.9-23.8,61.7-56.7,63.1h-18.9
	l70.8,105.8h-29.4l-86.2-128.9L2215.9,1842.4L2215.9,1842.4z M2484.9,1971.3l-82-201.8l-39.9,100.2h56l9.8,23.8h-75l-30.8,77.8
	h-25.2l94.6-235.4h23.1l96,235.4H2484.9z M2681.1,1735.9v23.8h-110v82.7h110v23.8h-110V1972h-24.5v-235.4h134.5V1735.9z
	 M2906.7,1735.9v23.8h-77.1v211.6h-25.2v-211.6H2728v-23.8H2906.7z M3088.8,1735.9v23.8h-110v82.7h110v23.8h-110v82.7h110v23.8
	h-135.2v-235.4h135.2V1735.9z M3202.3,1736.6c65.2,3.5,114.9,58.8,111.4,124c-3.5,60.2-51.1,107.9-111.4,111.4h-65.9v-235.4H3202.3z
	 M3202.3,1947.4c50.4,0,85.5-42.7,85.5-93.9c0-51.1-35-93.9-85.5-93.9H3161v187.8L3202.3,1947.4L3202.3,1947.4z M3509.2,1736.6h95.3
	c37.8,2.1,66.6,33.6,65.2,71.5c-1.4,35-30.1,63.1-65.2,65.2h-70.1v99.5h-24.5L3509.2,1736.6L3509.2,1736.6z M3534.4,1759.7v89.7
	h70.8c24.5-2.8,42-25.2,39.2-50.4c-2.8-20.3-18.9-37.1-39.2-39.2H3534.4z M3851.7,1735.9v23.8h-110.7v82.7h110v23.8h-110v82.7h110
	v23.8h-135.2v-235.4h135.9V1735.9z M3998.2,1842.4c20.3,0,37.1-16.1,37.1-36.4v-3.5c0.7-23.1-17.5-42-40.6-42.7h-70.8v211.6h-24.5
	v-234.7h96c35.7,0,65.2,28.7,65.2,64.5v1.4c2.1,32.9-23.8,61.7-56.7,63.1h-18.9l70.8,105.8h-29.4l-86.2-128.9H3998.2z M4242,1735.9
	v23.8h-110v82.7h110v23.8h-110V1972h-25.2v-235.4H4242V1735.9z M4409.4,1731c68,0.7,121.9,55.3,121.9,123.3
	c-0.7,68-55.3,121.9-123.3,121.9c-67.3-0.7-121.9-55.3-121.9-122.6C4286.8,1786.3,4341.4,1731.7,4409.4,1731 M4409.4,1952.3
	c54.6,0.7,100.2-42.7,100.9-97.4c0.7-54.6-42.7-100.2-97.4-100.9c-54.6-0.7-100.2,42.7-100.9,97.4v2.1
	C4312,1907.5,4355.5,1951.6,4409.4,1952.3 M4677.7,1842.4c20.3,0,37.1-16.1,37.1-36.4v-3.5c0.7-23.1-17.5-42-40.6-42.7h-70.8v211.6
	h-24.5v-234.7h96c35.7,0,65.2,28.7,65.2,64.5v1.4c2.1,32.9-23.8,61.7-56.7,63.1h-19.6l70.8,105.8H4705l-86.2-128.9H4677.7
	L4677.7,1842.4z M4912.4,1871.8l100.2-135.9h24.5v235.4h-24.5v-194.8l-86.9,119.1h-26.6l-86.9-119.1v194.8h-24.5v-235.4h24.5
	L4912.4,1871.8L4912.4,1871.8z M5262.7,1971.3l-81.3-201.8l-39.9,100.2h56l9.8,23.8h-75.7l-30.8,77.8h-25.2l94.6-235.4h23.1
	l96,235.4H5262.7L5262.7,1971.3z M5353.1,1775.1v195.5h-24.5v-235.4h24.5l149.2,196.2v-196.2h25.2v235.4h-25.2L5353.1,1775.1z
	 M5568.1,1853.6c0.7-68,55.3-122.6,123.3-122.6c31.5-1.4,62.4,10.5,85.5,32.2l-14.7,18.9c-39.2-37.8-102.3-36.4-140.1,2.8
	c-37.8,39.2-36.4,102.3,2.8,140.1c38.5,37.1,98.8,37.1,137.3,0l14.7,18.9c-23.1,21.7-53.9,32.9-85.5,32.2
	C5623.5,1976.2,5568.1,1921.5,5568.1,1853.6 M5952.8,1735.9v23.8h-110v82.7h110v23.8h-110v82.7h110v23.8h-135.2v-235.4h135.2
	L5952.8,1735.9z"/>
</svg>
