<svg xmlns="http://www.w3.org/2000/svg" id="acura-slogan" viewBox="0 0 849.7 200" width="100%" height="100%"><path d="M124.7 56c-1-20.5-8.1-35.6-17.6-43.8C96.8 3.3 77.5 0 62.5 0c-15 .1-34.2 3.3-44.6 12.2C8.4 20.4 1.4 35.5.2 56c-1 19.2 3.3 40.1 14.2 52.2 10.5 11.7 31.7 15.4 48.1 15.4 16.4 0 37.6-3.7 48.1-15.4 10.9-11.9 15.1-33.1 14.1-52.2zM59 5.2h7V50h-7.1L59 5.2zM8.6 74.7C8 67.1 5.7 39 16.8 22.9c4.6-6.6 11.3-11.6 18.9-14.2 7-2.2 14.3-3.4 21.6-3.6C52.6 16.4 43.1 40.5 41.4 46c-2.9 7.1-4.9 14.6-6.1 22.2-1.2 9.7-3.4 34-3.9 44.6-13.2-6.4-21.2-18.3-22.8-38.1zm83.5 38.7c-9.1 3.9-20.4 4.7-29.7 4.9-9.3.2-20.6-1-29.7-4.9 3-8.1 17.6-43 25.6-56.6h8.2c8.1 13.6 22.6 48.5 25.6 56.6zm24.2-38.7c-1.7 19.7-9.6 31.7-22.9 38-.6-10.6-2.7-34.9-3.9-44.6-1.2-7.6-3.2-15.1-6.1-22.2C81.6 40.5 72.1 16.3 67.5 5c7.3.2 14.6 1.4 21.6 3.6 7.6 2.6 14.2 7.6 18.9 14.2 11.2 16.2 8.9 44.3 8.3 51.9zm84.6-65h28.2l62.7 103.9h-29.6l-47.3-78.5L190 76.4h40.5L242.4 96h-64.2l-10.5 17.6h-29.3L200.9 9.7zm387.5 104H563V9.8h95.3c33 0 41.6 44 18.4 59.2 10.1 3.8 11.8 16.5 12.2 20.6l.8 24.1h-25.1l-.8-21.2c-.7-9.1-6.4-15.3-15.6-15.3h-48.4l-5-21.7h56c8.7 0 13.8-4.1 13.8-11.8 0-7.3-5-11.8-13.8-11.8h-62.4v81.8m-103.4 0h-23.2c-27.2 0-38.2-15.1-38.2-39.6V9.7h25.7v68.8c.1 13.1 9.1 14.8 17.4 15h36.7c8.3-.2 17.4-1.9 17.4-15V9.7h25.7v64.4c0 24.5-11 39.6-38.2 39.6H485M316 61.9v12.9c.2 8.9 2 17.7 14.4 17.7h78.2v21.2H330c-24.5 0-39.6-10.9-39.8-38.2V48.1c.3-27.3 15.3-38.2 39.8-38.2h78.5v21.2h-78.2c-12.4-.1-14.1 8.7-14.4 17.6v13m442.9-52H787l62.6 103.9H820l-47.3-78.5-24.9 41.3h40.5L800.1 96H736l-10.6 17.6h-29.3L758.8 9.7zM0 165.8h13.5c5.4.3 9.5 4.8 9.3 10.2-.2 5-4.3 9-9.3 9.3h-10v14.2H0v-33.7zm3.5 3.3v12.8h10c3.5-.4 6-3.6 5.6-7.2-.4-2.9-2.7-5.3-5.6-5.6h-10zm40.2 11.8c2.9 0 5.3-2.3 5.3-5.2v-.5c.1-3.3-2.5-6-5.8-6.1H33v30.2h-3.5v-33.5h13.7c5.1 0 9.3 4.1 9.3 9.2v.2c.3 4.7-3.4 8.8-8.1 9h-2.7l10.1 15.1h-4.2l-12.3-18.4h8.4zm34.2-15.2v3.4H62.2v11.8h15.7v3.4H62.2v11.8h15.7v3.4H58.6v-33.6h19.3zm6.7 16.8c.1-9.7 7.9-17.5 17.6-17.5 4.5-.2 8.9 1.5 12.2 4.6l-2.1 2.7c-5.6-5.4-14.6-5.2-20 .4-5.4 5.6-5.2 14.6.4 20 5.5 5.3 14.1 5.3 19.6 0l2.1 2.7c-3.3 3.1-7.7 4.7-12.2 4.6-9.7 0-17.5-7.8-17.6-17.5m35.6-16.8h3.5v33.6h-3.5v-33.6zm26 7.8c-.2-3-2.8-5.4-5.8-5.2-2.8.1-5 2.3-5.2 5.1 0 3.7 3.3 5.2 6.8 6.8 5.7 2.6 9.1 4.7 9.1 10.6s-4.8 9.1-10.5 9.1-10.3-3.6-10.3-9.3h3.5c.2 3.5 3.1 6.2 6.6 6h.2c4 0 6.8-2.1 6.8-5.9s-2.6-5.3-7.1-7.4c-4.5-2.1-8.9-4.1-8.9-10.1-.1-4.5 3.5-8.3 8-8.4h.9c5.7 0 9.2 3.2 9.2 8.5l-3.3.2zm10.6-7.8h3.5v33.6h-3.5v-33.6zm27.3-.7c9.7.1 17.4 7.9 17.4 17.6-.1 9.7-7.9 17.4-17.6 17.4-9.6-.1-17.4-7.9-17.4-17.5.1-9.6 7.9-17.4 17.6-17.5m0 31.6c7.8.1 14.3-6.1 14.4-13.9.1-7.8-6.1-14.3-13.9-14.4-7.8-.1-14.3 6.1-14.4 13.9v.3c0 7.7 6.2 14 13.9 14.1m27.4-25.3v27.9h-3.6v-33.6h3.6l21.3 28v-28h3.6v33.6h-3.6l-21.3-27.9zm55.2 11.2c.1-9.7 7.9-17.5 17.6-17.5 4.5-.2 8.9 1.5 12.2 4.6l-2.1 2.7c-5.6-5.4-14.6-5.2-20 .4-5.4 5.6-5.2 14.6.4 20 5.5 5.3 14.1 5.3 19.6 0l2.1 2.7c-3.3 3.1-7.7 4.7-12.2 4.6-9.7 0-17.5-7.8-17.6-17.5m49.6-1.6c2.9 0 5.3-2.3 5.3-5.2v-.5c.1-3.3-2.5-6-5.8-6.1h-10.1v30.2h-3.5v-33.5h13.7c5.1 0 9.3 4.1 9.3 9.2v.2c.3 4.7-3.4 8.8-8.1 9h-2.7l10.1 15.1h-4.2L308 180.9h8.3zm38.4 18.4L343 170.5l-5.7 14.3h8l1.4 3.4H336l-4.4 11.1H328l13.5-33.6h3.3l13.7 33.6h-3.8zm28-33.6v3.4H367v11.8h15.7v3.4H367v15.1h-3.5v-33.6h19.2zm32.2 0v3.4h-11v30.2h-3.6v-30.2h-10.9v-3.4h25.5zm26 0v3.4h-15.7v11.8h15.7v3.4h-15.7v11.8h15.7v3.4h-19.3v-33.6h19.3zm16.2.1c9.3.5 16.4 8.4 15.9 17.7-.5 8.6-7.3 15.4-15.9 15.9h-9.4v-33.6h9.4zm0 30.1c7.2 0 12.2-6.1 12.2-13.4 0-7.3-5-13.4-12.2-13.4h-5.9v26.8h5.9zm43.8-30.1h13.6c5.4.3 9.5 4.8 9.3 10.2-.2 5-4.3 9-9.3 9.3h-10v14.2H501l-.1-33.7zm3.6 3.3v12.8h10.1c3.5-.4 6-3.6 5.6-7.2-.4-2.9-2.7-5.3-5.6-5.6h-10.1zm45.3-3.4v3.4H534v11.8h15.7v3.4H534v11.8h15.7v3.4h-19.3v-33.6h19.4zm20.9 15.2c2.9 0 5.3-2.3 5.3-5.2v-.5c.1-3.3-2.5-6-5.8-6.1h-10.1v30.2h-3.5v-33.5h13.7c5.1 0 9.3 4.1 9.3 9.2v.2c.3 4.7-3.4 8.8-8.1 9h-2.7l10.1 15.1h-4.2l-12.3-18.4h8.3zm34.8-15.2v3.4h-15.7v11.8h15.7v3.4h-15.7v15.1h-3.6v-33.6h19.3zm23.9-.7c9.7.1 17.4 7.9 17.4 17.6-.1 9.7-7.9 17.4-17.6 17.4-9.6-.1-17.4-7.9-17.4-17.5.1-9.6 7.9-17.4 17.6-17.5m0 31.6c7.8.1 14.3-6.1 14.4-13.9.1-7.8-6.1-14.3-13.9-14.4-7.8-.1-14.3 6.1-14.4 13.9v.3c0 7.7 6.2 14 13.9 14.1m38.3-15.7c2.9 0 5.3-2.3 5.3-5.2v-.5c.1-3.3-2.5-6-5.8-6.1h-10.1v30.2h-3.5v-33.5h13.7c5.1 0 9.3 4.1 9.3 9.2v.2c.3 4.7-3.4 8.8-8.1 9h-2.8l10.1 15.1h-4.2l-12.3-18.4h8.4zm33.5 4.2l14.3-19.4h3.5v33.6h-3.5v-27.8l-12.4 17h-3.8l-12.4-17v27.8h-3.5v-33.6h3.5l14.3 19.4zm50 14.2l-11.6-28.8-5.7 14.3h8l1.4 3.4h-10.8l-4.4 11.1h-3.6l13.5-33.6h3.3l13.7 33.6h-3.8zm12.9-28v27.9h-3.5v-33.6h3.5l21.3 28v-28h3.6v33.6h-3.6l-21.3-27.9zm30.7 11.2c.1-9.7 7.9-17.5 17.6-17.5 4.5-.2 8.9 1.5 12.2 4.6l-2.1 2.7c-5.6-5.4-14.6-5.2-20 .4-5.4 5.6-5.2 14.6.4 20 5.5 5.3 14.1 5.3 19.6 0l2.1 2.7c-3.3 3.1-7.7 4.7-12.2 4.6-9.7 0-17.6-7.8-17.6-17.5m54.9-16.8v3.4H834v11.8h15.7v3.4H834v11.8h15.7v3.4h-19.3v-33.6h19.3z"></path></svg>